<?xml version="1.0" encoding="UTF-8" standalone="no"?>
<!-- Generator: Adobe Illustrator 16.0.0, SVG Export Plug-In . SVG Version: 6.00 Build 0)  -->

<svg
   xmlns:dc="http://purl.org/dc/elements/1.1/"
   xmlns:cc="http://creativecommons.org/ns#"
   xmlns:rdf="http://www.w3.org/1999/02/22-rdf-syntax-ns#"
   xmlns:svg="http://www.w3.org/2000/svg"
   xmlns="http://www.w3.org/2000/svg"
   xmlns:sodipodi="http://sodipodi.sourceforge.net/DTD/sodipodi-0.dtd"
   xmlns:inkscape="http://www.inkscape.org/namespaces/inkscape"
   version="1.1"
   id="Layer_1"
   x="0px"
   y="0px"
   width="24px"
   height="24px"
   viewBox="0 0 24 24"
   enable-background="new 0 0 24 24"
   xml:space="preserve"
   inkscape:version="0.91 r13725"
   sodipodi:docname="eaglenet.online.svg"
   inkscape:export-filename="/home/kevin/dev/eaglenet.online/graphics/eaglenet.online.png"
   inkscape:export-xdpi="507.94"
   inkscape:export-ydpi="507.94"><metadata
     id="metadata4297"><rdf:RDF><cc:Work
         rdf:about=""><dc:format>image/svg+xml</dc:format><dc:type
           rdf:resource="http://purl.org/dc/dcmitype/StillImage" /><dc:title></dc:title></cc:Work></rdf:RDF></metadata><defs
     id="defs4295" /><sodipodi:namedview
     pagecolor="#ffffff"
     bordercolor="#666666"
     borderopacity="1"
     objecttolerance="10"
     gridtolerance="10"
     guidetolerance="10"
     inkscape:pageopacity="0"
     inkscape:pageshadow="2"
     inkscape:window-width="3828"
     inkscape:window-height="2106"
     id="namedview4293"
     showgrid="false"
     inkscape:zoom="72.666667"
     inkscape:cx="10.348624"
     inkscape:cy="12.027523"
     inkscape:window-x="0"
     inkscape:window-y="48"
     inkscape:window-maximized="0"
     inkscape:current-layer="Layer_1" /><g
     id="g4320"
     inkscape:export-xdpi="4500"
     inkscape:export-ydpi="4500"><g
       id="g4285"><path
         id="path4287"
         d="M15.104,15.563l-0.107-0.108c0.701-0.714,0.933-1.733,0.632-2.64c-1.35-0.187-2.612-0.698-3.699-1.491   c-0.183,0.096-0.357,0.214-0.519,0.358l-0.104,0.092l-1.162-1.162l-7.933,7.934v0.496h1.983V24H8.56v-3.256h3.173V24h4.364v-4.958   h1.983v-0.496l-2.975-2.975V15.563z" /><path
         id="path4289"
         d="M18.573,1.468l-3.794,4.506c0.615,0.529,1.321,0.946,2.081,1.232l2.129-5.491c0.138,0.036,0.287,0.038,0.436,0   c0.465-0.119,0.748-0.594,0.628-1.06c-0.119-0.466-0.595-0.747-1.06-0.628c-0.467,0.119-0.748,0.594-0.629,1.06   C18.402,1.235,18.476,1.365,18.573,1.468z" /><path
         id="path4291"
         d="M20.892,6.889c-0.508-0.681-1.204-1.363-2.026-1.995l0-0.001L18.53,5.758c0.684,0.543,1.26,1.118,1.687,1.689   c0.583,0.782,0.815,1.492,0.604,1.849c-0.09,0.153-0.276,0.267-0.547,0.336c-0.979,0.25-3.017-0.119-5.362-1.509   c-1.38-0.818-2.538-1.803-3.262-2.772c-0.583-0.783-0.815-1.492-0.604-1.849c0.09-0.153,0.276-0.267,0.548-0.336   c0.732-0.188,2.055-0.027,3.656,0.646l0.597-0.709c-0.588-0.259-1.174-0.468-1.737-0.617c-1.085-0.288-2.041-0.341-2.761-0.158   c-0.574,0.147-1.009,0.45-1.263,0.875C9.958,3.416,9.882,3.649,9.855,3.901c-0.181,0.962-0.159,1.976,0.1,2.986   c0.947,3.703,4.715,5.938,8.421,4.99c1.014-0.259,1.915-0.73,2.675-1.354c0.205-0.146,0.373-0.323,0.496-0.529   C22.021,9.191,21.789,8.089,20.892,6.889z" /></g><rect
       y="-1.7881393e-07"
       x="0"
       height="24"
       width="24"
       id="rect4318"
       style="color:#000000;clip-rule:nonzero;display:inline;overflow:visible;visibility:visible;opacity:0.70999995;isolation:auto;mix-blend-mode:normal;color-interpolation:sRGB;color-interpolation-filters:linearRGB;solid-color:#000000;solid-opacity:1;fill:none;fill-opacity:1;fill-rule:nonzero;stroke-width:1;stroke-linecap:butt;stroke-linejoin:miter;stroke-miterlimit:4;stroke-dasharray:none;stroke-dashoffset:0;stroke-opacity:1;color-rendering:auto;image-rendering:auto;shape-rendering:auto;text-rendering:auto;enable-background:accumulate" /></g></svg>